<svg width="2562" height="1169" xmlns="http://www.w3.org/2000/svg" xmlns:xlink="http://www.w3.org/1999/xlink" xml:space="preserve" overflow="hidden"><g transform="translate(-467 -178)"><g><text fill="#000000" fill-opacity="1" font-family="Arial,Arial_MSFontService,sans-serif" font-style="normal" font-variant="normal" font-weight="700" font-stretch="normal" font-size="55" text-anchor="start" direction="ltr" writing-mode="lr-tb" unicode-bidi="normal" text-decoration="none" transform="matrix(1 0 0 1 1195.85 252)">FIG. 1 </text><text fill="#000000" fill-opacity="1" font-family="Arial,Arial_MSFontService,sans-serif" font-style="normal" font-variant="normal" font-weight="700" font-stretch="normal" font-size="55" text-anchor="start" direction="ltr" writing-mode="lr-tb" unicode-bidi="normal" text-decoration="none" transform="matrix(1 0 0 1 1364.86 252)">—</text><text fill="#000000" fill-opacity="1" font-family="Arial,Arial_MSFontService,sans-serif" font-style="normal" font-variant="normal" font-weight="700" font-stretch="normal" font-size="55" text-anchor="start" direction="ltr" writing-mode="lr-tb" unicode-bidi="normal" text-decoration="none" transform="matrix(1 0 0 1 1435.32 252)">XY Microscopy Stage: Upright and Inverted Geometries</text><text fill="#111111" fill-opacity="1" font-family="Arial,Arial_MSFontService,sans-serif" font-style="normal" font-variant="normal" font-weight="400" font-stretch="normal" font-size="45" text-anchor="start" direction="ltr" writing-mode="lr-tb" unicode-bidi="normal" text-decoration="none" transform="matrix(1 0 0 1 958.904 389)">(A) Upright transmission</text><path d="M1042.01 452.022 1267.01 452.022 1210.76 593.022 1098.26 593.022Z" stroke="#000000" stroke-width="3.92687" stroke-linecap="butt" stroke-linejoin="miter" stroke-miterlimit="8" stroke-opacity="1" fill="#B9C9E6" fill-rule="evenodd" fill-opacity="1"/><text fill="#000000" fill-opacity="1" font-family="Arial,Arial_MSFontService,sans-serif" font-style="normal" font-variant="normal" font-weight="700" font-stretch="normal" font-size="45" text-anchor="start" direction="ltr" writing-mode="lr-tb" unicode-bidi="normal" text-decoration="none" transform="matrix(1 0 0 1 1300.31 541)">110</text><text fill="#111111" fill-opacity="1" font-family="Arial,Arial_MSFontService,sans-serif" font-style="normal" font-variant="normal" font-weight="400" font-stretch="normal" font-size="45" text-anchor="start" direction="ltr" writing-mode="lr-tb" unicode-bidi="normal" text-decoration="none" transform="matrix(1 0 0 1 1401.29 542)">Objective</text><path d="M1370.6 677.021C1375.25 677.021 1379.01 677.021 1379.01 677.021L1379.01 738.022C1379.01 738.022 1375.25 738.022 1370.6 738.022L938.433 738.022C933.783 738.022 930.014 738.022 930.014 738.022L930.014 677.021C930.014 677.021 933.783 677.021 938.433 677.021Z" stroke="#000000" stroke-width="3.92687" stroke-linecap="butt" stroke-linejoin="miter" stroke-miterlimit="8" stroke-opacity="1" fill="#F4D58D" fill-rule="evenodd" fill-opacity="1"/><text fill="#000000" fill-opacity="1" font-family="Arial,Arial_MSFontService,sans-serif" font-style="normal" font-variant="normal" font-weight="700" font-stretch="normal" font-size="45" text-anchor="start" direction="ltr" writing-mode="lr-tb" unicode-bidi="normal" text-decoration="none" transform="matrix(1 0 0 1 1404.96 674)">120</text><text fill="#111111" fill-opacity="1" font-family="Arial,Arial_MSFontService,sans-serif" font-style="normal" font-variant="normal" font-weight="400" font-stretch="normal" font-size="45" text-anchor="start" direction="ltr" writing-mode="lr-tb" unicode-bidi="normal" text-decoration="none" transform="matrix(1 0 0 1 1500.32 676)">Carriage</text><text fill="#111111" fill-opacity="1" font-family="Arial,Arial_MSFontService,sans-serif" font-style="normal" font-variant="normal" font-weight="400" font-stretch="normal" font-size="45" text-anchor="start" direction="ltr" writing-mode="lr-tb" unicode-bidi="normal" text-decoration="none" transform="matrix(1 0 0 1 1683.08 676)">/ </text><text fill="#111111" fill-opacity="1" font-family="Arial,Arial_MSFontService,sans-serif" font-style="normal" font-variant="normal" font-weight="400" font-stretch="normal" font-size="45" text-anchor="start" direction="ltr" writing-mode="lr-tb" unicode-bidi="normal" text-decoration="none" transform="matrix(1 0 0 1 1708.29 676)">sled</text><path d="M1070.51 643.522 1239.51 643.522 1239.51 677.522 1070.51 677.522Z" stroke="#000000" stroke-width="2.80486" stroke-linecap="butt" stroke-linejoin="miter" stroke-miterlimit="8" stroke-opacity="1" fill="#CDEAF7" fill-rule="evenodd" fill-opacity="1"/><text fill="#111111" fill-opacity="1" font-family="Arial,Arial_MSFontService,sans-serif" font-style="normal" font-variant="normal" font-weight="400" font-stretch="normal" font-size="45" text-anchor="start" direction="ltr" writing-mode="lr-tb" unicode-bidi="normal" text-decoration="none" transform="matrix(1 0 0 1 889.51 624)">sample</text><path d="M958.514 738.522 997.515 738.522 997.515 767.523 958.514 767.523Z" stroke="#000000" stroke-width="3.36604" stroke-linecap="butt" stroke-linejoin="miter" stroke-miterlimit="8" stroke-opacity="1" fill="#444444" fill-rule="evenodd" fill-opacity="1"/><path d="M1014.51 738.522 1053.51 738.522 1053.51 767.523 1014.51 767.523Z" stroke="#000000" stroke-width="3.36604" stroke-linecap="butt" stroke-linejoin="miter" stroke-miterlimit="8" stroke-opacity="1" fill="#444444" fill-rule="evenodd" fill-opacity="1"/><path d="M1070.51 738.522 1110.52 738.522 1110.52 767.523 1070.51 767.523Z" stroke="#000000" stroke-width="3.36604" stroke-linecap="butt" stroke-linejoin="miter" stroke-miterlimit="8" stroke-opacity="1" fill="#444444" fill-rule="evenodd" fill-opacity="1"/><path d="M1126.51 738.522 1166.51 738.522 1166.51 767.523 1126.51 767.523Z" stroke="#000000" stroke-width="3.36604" stroke-linecap="butt" stroke-linejoin="miter" stroke-miterlimit="8" stroke-opacity="1" fill="#444444" fill-rule="evenodd" fill-opacity="1"/><path d="M1183.51 738.522 1222.51 738.522 1222.51 767.523 1183.51 767.523Z" stroke="#000000" stroke-width="3.36604" stroke-linecap="butt" stroke-linejoin="miter" stroke-miterlimit="8" stroke-opacity="1" fill="#444444" fill-rule="evenodd" fill-opacity="1"/><path d="M1239.51 738.522 1278.51 738.522 1278.51 767.523 1239.51 767.523Z" stroke="#000000" stroke-width="3.36604" stroke-linecap="butt" stroke-linejoin="miter" stroke-miterlimit="8" stroke-opacity="1" fill="#444444" fill-rule="evenodd" fill-opacity="1"/><path d="M1295.51 738.522 1334.51 738.522 1334.51 767.523 1295.51 767.523Z" stroke="#000000" stroke-width="3.36604" stroke-linecap="butt" stroke-linejoin="miter" stroke-miterlimit="8" stroke-opacity="1" fill="#444444" fill-rule="evenodd" fill-opacity="1"/><text fill="#000000" fill-opacity="1" font-family="Arial,Arial_MSFontService,sans-serif" font-style="normal" font-variant="normal" font-weight="700" font-stretch="normal" font-size="45" text-anchor="start" direction="ltr" writing-mode="lr-tb" unicode-bidi="normal" text-decoration="none" transform="matrix(1 0 0 1 1401.29 777)">130</text><text fill="#111111" fill-opacity="1" font-family="Arial,Arial_MSFontService,sans-serif" font-style="normal" font-variant="normal" font-weight="400" font-stretch="normal" font-size="45" text-anchor="start" direction="ltr" writing-mode="lr-tb" unicode-bidi="normal" text-decoration="none" transform="matrix(1 0 0 1 1501.82 778)">Magnet </text><text fill="#111111" fill-opacity="1" font-family="Arial,Arial_MSFontService,sans-serif" font-style="normal" font-variant="normal" font-weight="400" font-stretch="normal" font-size="45" text-anchor="start" direction="ltr" writing-mode="lr-tb" unicode-bidi="normal" text-decoration="none" transform="matrix(1 0 0 1 1662.81 778)">assy</text><text fill="#111111" fill-opacity="1" font-family="Arial,Arial_MSFontService,sans-serif" font-style="normal" font-variant="normal" font-weight="400" font-stretch="normal" font-size="45" text-anchor="start" direction="ltr" writing-mode="lr-tb" unicode-bidi="normal" text-decoration="none" transform="matrix(1 0 0 1 1754.48 778)">.</text><path d="M762.015 789.022 1547.01 789.022 1547.01 868.022 762.015 868.022Z" stroke="#000000" stroke-width="4.48806" stroke-linecap="butt" stroke-linejoin="miter" stroke-miterlimit="8" stroke-opacity="1" fill="#CFE6CF" fill-rule="evenodd" fill-opacity="1"/><path d="M1098.51 789.522 1211.51 789.522 1211.51 868.522 1098.51 868.522Z" stroke="#000000" stroke-width="2.80486" stroke-linecap="butt" stroke-linejoin="miter" stroke-miterlimit="8" stroke-opacity="1" fill="#FFFFFF" fill-rule="evenodd" fill-opacity="1"/><text fill="#000000" fill-opacity="1" font-family="Arial,Arial_MSFontService,sans-serif" font-style="normal" font-variant="normal" font-weight="700" font-stretch="normal" font-size="45" text-anchor="start" direction="ltr" writing-mode="lr-tb" unicode-bidi="normal" text-decoration="none" transform="matrix(1 0 0 1 1575.2 849)">140</text><text fill="#111111" fill-opacity="1" font-family="Arial,Arial_MSFontService,sans-serif" font-style="normal" font-variant="normal" font-weight="400" font-stretch="normal" font-size="45" text-anchor="start" direction="ltr" writing-mode="lr-tb" unicode-bidi="normal" text-decoration="none" transform="matrix(1 0 0 1 1670.55 852)">PCB stator</text><text fill="#111111" fill-opacity="1" font-family="Arial,Arial_MSFontService,sans-serif" font-style="normal" font-variant="normal" font-weight="400" font-stretch="normal" font-size="45" text-anchor="start" direction="ltr" writing-mode="lr-tb" unicode-bidi="normal" text-decoration="none" transform="matrix(1 0 0 1 1210.97 956)">aperture</text><text fill="#111111" fill-opacity="1" font-family="Arial,Arial_MSFontService,sans-serif" font-style="normal" font-variant="normal" font-weight="400" font-stretch="normal" font-size="45" text-anchor="start" direction="ltr" writing-mode="lr-tb" unicode-bidi="normal" text-decoration="none" transform="matrix(1 0 0 1 1389.15 956)">(150)</text><path d="M1099.08 1069.52 1210.95 1069.52 1244.51 1182.52 1065.51 1182.52Z" stroke="#000000" stroke-width="3.36604" stroke-linecap="butt" stroke-linejoin="miter" stroke-miterlimit="8" stroke-opacity="1" fill="#FFF5B1" fill-rule="evenodd" fill-opacity="1"/><text fill="#111111" fill-opacity="1" font-family="Arial,Arial_MSFontService,sans-serif" font-style="normal" font-variant="normal" font-weight="400" font-stretch="normal" font-size="45" text-anchor="start" direction="ltr" writing-mode="lr-tb" unicode-bidi="normal" text-decoration="none" transform="matrix(1 0 0 1 1023.73 1259)">illuminator (160)</text><path d="M1154.52 1069.52 1154.52 621.522" stroke="#C0A000" stroke-width="2.80486" stroke-linecap="butt" stroke-linejoin="miter" stroke-miterlimit="8" stroke-dasharray="11.2194 8.41457" stroke-opacity="1" fill="none" fill-rule="evenodd"/><path d="M1126.52 1069.52 1126.52 621.522" stroke="#C0A000" stroke-width="2.80486" stroke-linecap="butt" stroke-linejoin="miter" stroke-miterlimit="8" stroke-dasharray="11.2194 8.41457" stroke-opacity="1" fill="none" fill-rule="evenodd"/><path d="M1183.51 1069.52 1183.51 621.522" stroke="#C0A000" stroke-width="2.80486" stroke-linecap="butt" stroke-linejoin="miter" stroke-miterlimit="8" stroke-dasharray="11.2194 8.41457" stroke-opacity="1" fill="none" fill-rule="evenodd"/><text fill="#111111" fill-opacity="1" font-family="Arial,Arial_MSFontService,sans-serif" font-style="normal" font-variant="normal" font-weight="400" font-stretch="normal" font-size="45" text-anchor="start" direction="ltr" writing-mode="lr-tb" unicode-bidi="normal" text-decoration="none" transform="matrix(1 0 0 1 2422.17 389)">(B) Inverted / epi</text><path d="M2501.45 452.522 2613.95 452.522 2647.7 565.522 2467.7 565.522Z" stroke="#000000" stroke-width="3.36604" stroke-linecap="butt" stroke-linejoin="miter" stroke-miterlimit="8" stroke-opacity="1" fill="#FFF5B1" fill-rule="evenodd" fill-opacity="1"/><text fill="#000000" fill-opacity="1" font-family="Arial,Arial_MSFontService,sans-serif" font-style="normal" font-variant="normal" font-weight="700" font-stretch="normal" font-size="45" text-anchor="start" direction="ltr" writing-mode="lr-tb" unicode-bidi="normal" text-decoration="none" transform="matrix(1 0 0 1 2702.81 524)">160</text><text fill="#111111" fill-opacity="1" font-family="Arial,Arial_MSFontService,sans-serif" font-style="normal" font-variant="normal" font-weight="400" font-stretch="normal" font-size="45" text-anchor="start" direction="ltr" writing-mode="lr-tb" unicode-bidi="normal" text-decoration="none" transform="matrix(1 0 0 1 2787.86 524)">Illuminator</text><path d="M2772.79 677.021C2777.43 677.021 2781.19 677.021 2781.19 677.021L2781.19 738.022C2781.19 738.022 2777.43 738.022 2772.79 738.022L2341.59 738.022C2336.96 738.022 2333.19 738.022 2333.19 738.022L2333.19 677.021C2333.19 677.021 2336.96 677.021 2341.59 677.021Z" stroke="#000000" stroke-width="3.92687" stroke-linecap="butt" stroke-linejoin="miter" stroke-miterlimit="8" stroke-opacity="1" fill="#F4D58D" fill-rule="evenodd" fill-opacity="1"/><path d="M2473.69 643.522 2641.69 643.522 2641.69 677.522 2473.69 677.522Z" stroke="#000000" stroke-width="2.80486" stroke-linecap="butt" stroke-linejoin="miter" stroke-miterlimit="8" stroke-opacity="1" fill="#CDEAF7" fill-rule="evenodd" fill-opacity="1"/><text fill="#111111" fill-opacity="1" font-family="Arial,Arial_MSFontService,sans-serif" font-style="normal" font-variant="normal" font-weight="400" font-stretch="normal" font-size="45" text-anchor="start" direction="ltr" writing-mode="lr-tb" unicode-bidi="normal" text-decoration="none" transform="matrix(1 0 0 1 2322.13 630)">sample</text><path d="M2361.69 738.522 2400.69 738.522 2400.69 767.523 2361.69 767.523Z" stroke="#000000" stroke-width="3.36604" stroke-linecap="butt" stroke-linejoin="miter" stroke-miterlimit="8" stroke-opacity="1" fill="#444444" fill-rule="evenodd" fill-opacity="1"/><path d="M2417.69 738.522 2456.69 738.522 2456.69 767.523 2417.69 767.523Z" stroke="#000000" stroke-width="3.36604" stroke-linecap="butt" stroke-linejoin="miter" stroke-miterlimit="8" stroke-opacity="1" fill="#444444" fill-rule="evenodd" fill-opacity="1"/><path d="M2473.69 738.522 2512.69 738.522 2512.69 767.523 2473.69 767.523Z" stroke="#000000" stroke-width="3.36604" stroke-linecap="butt" stroke-linejoin="miter" stroke-miterlimit="8" stroke-opacity="1" fill="#444444" fill-rule="evenodd" fill-opacity="1"/><path d="M2529.69 738.522 2568.69 738.522 2568.69 767.523 2529.69 767.523Z" stroke="#000000" stroke-width="3.36604" stroke-linecap="butt" stroke-linejoin="miter" stroke-miterlimit="8" stroke-opacity="1" fill="#444444" fill-rule="evenodd" fill-opacity="1"/><path d="M2585.69 738.522 2624.69 738.522 2624.69 767.523 2585.69 767.523Z" stroke="#000000" stroke-width="3.36604" stroke-linecap="butt" stroke-linejoin="miter" stroke-miterlimit="8" stroke-opacity="1" fill="#444444" fill-rule="evenodd" fill-opacity="1"/><path d="M2641.69 738.522 2680.69 738.522 2680.69 767.523 2641.69 767.523Z" stroke="#000000" stroke-width="3.36604" stroke-linecap="butt" stroke-linejoin="miter" stroke-miterlimit="8" stroke-opacity="1" fill="#444444" fill-rule="evenodd" fill-opacity="1"/><path d="M2697.69 738.522 2736.69 738.522 2736.69 767.523 2697.69 767.523Z" stroke="#000000" stroke-width="3.36604" stroke-linecap="butt" stroke-linejoin="miter" stroke-miterlimit="8" stroke-opacity="1" fill="#444444" fill-rule="evenodd" fill-opacity="1"/><path d="M2164.2 789.022 2950.2 789.022 2950.2 868.022 2164.2 868.022Z" stroke="#000000" stroke-width="4.48806" stroke-linecap="butt" stroke-linejoin="miter" stroke-miterlimit="8" stroke-opacity="1" fill="#CFE6CF" fill-rule="evenodd" fill-opacity="1"/><path d="M2501.69 789.522 2613.69 789.522 2613.69 868.522 2501.69 868.522Z" stroke="#000000" stroke-width="2.80486" stroke-linecap="butt" stroke-linejoin="miter" stroke-miterlimit="8" stroke-opacity="1" fill="#FFFFFF" fill-rule="evenodd" fill-opacity="1"/><path d="M2501.19 1041.02 2613.19 1041.02 2669.19 901.022 2445.19 901.022Z" stroke="#000000" stroke-width="3.92687" stroke-linecap="butt" stroke-linejoin="miter" stroke-miterlimit="8" stroke-opacity="1" fill="#B9C9E6" fill-rule="evenodd" fill-opacity="1"/><text fill="#000000" fill-opacity="1" font-family="Arial,Arial_MSFontService,sans-serif" font-style="normal" font-variant="normal" font-weight="700" font-stretch="normal" font-size="45" text-anchor="start" direction="ltr" writing-mode="lr-tb" unicode-bidi="normal" text-decoration="none" transform="matrix(1 0 0 1 2702.81 1001)">110</text><text fill="#111111" fill-opacity="1" font-family="Arial,Arial_MSFontService,sans-serif" font-style="normal" font-variant="normal" font-weight="400" font-stretch="normal" font-size="45" text-anchor="start" direction="ltr" writing-mode="lr-tb" unicode-bidi="normal" text-decoration="none" transform="matrix(1 0 0 1 2795.41 1001)">Objective</text><path d="M2557.71 565.522 2557.71 901.522" stroke="#C0A000" stroke-width="2.80486" stroke-linecap="butt" stroke-linejoin="miter" stroke-miterlimit="8" stroke-dasharray="11.2194 8.41457" stroke-opacity="1" fill="none" fill-rule="evenodd"/><path d="M2529.71 565.522 2529.71 901.522" stroke="#C0A000" stroke-width="2.80486" stroke-linecap="butt" stroke-linejoin="miter" stroke-miterlimit="8" stroke-dasharray="11.2194 8.41457" stroke-opacity="1" fill="none" fill-rule="evenodd"/><path d="M2585.71 565.522 2585.71 901.522" stroke="#C0A000" stroke-width="2.80486" stroke-linecap="butt" stroke-linejoin="miter" stroke-miterlimit="8" stroke-dasharray="11.2194 8.41457" stroke-opacity="1" fill="none" fill-rule="evenodd"/><path d="M516.014 1232.2 684.014 1232.2" stroke="#000000" stroke-width="3.92687" stroke-linecap="butt" stroke-linejoin="miter" stroke-miterlimit="8" stroke-opacity="1" fill="none" fill-rule="evenodd"/><path d="M516.015 1232.19 516.015 1092.19" stroke="#000000" stroke-width="3.92687" stroke-linecap="butt" stroke-linejoin="miter" stroke-miterlimit="8" stroke-opacity="1" fill="none" fill-rule="evenodd"/><text fill="#111111" fill-opacity="1" font-family="Arial,Arial_MSFontService,sans-serif" font-style="normal" font-variant="normal" font-weight="400" font-stretch="normal" font-size="45" text-anchor="start" direction="ltr" writing-mode="lr-tb" unicode-bidi="normal" text-decoration="none" transform="matrix(1 0 0 1 706.651 1254)">X</text><text fill="#111111" fill-opacity="1" font-family="Arial,Arial_MSFontService,sans-serif" font-style="normal" font-variant="normal" font-weight="400" font-stretch="normal" font-size="45" text-anchor="start" direction="ltr" writing-mode="lr-tb" unicode-bidi="normal" text-decoration="none" transform="matrix(1 0 0 1 504.691 1085)">Z</text><text fill="#111111" fill-opacity="1" font-family="Arial,Arial_MSFontService,sans-serif" font-style="normal" font-variant="normal" font-weight="400" font-stretch="normal" font-size="45" text-anchor="start" direction="ltr" writing-mode="lr-tb" unicode-bidi="normal" text-decoration="none" transform="matrix(1 0 0 1 515.911 1310)">Y out </text><text fill="#111111" fill-opacity="1" font-family="Arial,Arial_MSFontService,sans-serif" font-style="normal" font-variant="normal" font-weight="400" font-stretch="normal" font-size="45" text-anchor="start" direction="ltr" writing-mode="lr-tb" unicode-bidi="normal" text-decoration="none" transform="matrix(1 0 0 1 632.786 1310)">of</text><text fill="#111111" fill-opacity="1" font-family="Arial,Arial_MSFontService,sans-serif" font-style="normal" font-variant="normal" font-weight="400" font-stretch="normal" font-size="45" text-anchor="start" direction="ltr" writing-mode="lr-tb" unicode-bidi="normal" text-decoration="none" transform="matrix(1 0 0 1 682.63 1310)">page</text><path d="M1014.5 643.5C1033.76 643.5 1053.02 648.19 1053.02 652.88 1053.02 657.57 1072.29 662.26 1091.55 662.26" stroke="#000000" stroke-width="6.875" stroke-linecap="butt" stroke-linejoin="miter" stroke-miterlimit="8" stroke-opacity="1" fill="none" fill-rule="evenodd"/><path d="M0 0C16.9479 0 33.8957 15.8607 33.8957 31.7214 33.8957 47.5821 50.8436 63.4427 67.7915 63.4427" stroke="#000000" stroke-width="6.875" stroke-linecap="butt" stroke-linejoin="miter" stroke-miterlimit="8" stroke-opacity="1" fill="none" fill-rule="evenodd" transform="matrix(1.83697e-16 1 1 -1.83697e-16 1187.5 855.5)"/></g></g></svg>